REM MD5 872588d99409a6d1cd1e6e95d3f49c24
FILE "Hyper PlayStation Re-mix 1998 No. 3 (Japan).bin" BINARY
  TRACK 01 MODE2/2352
    INDEX 01 00:00:00
  TRACK 02 AUDIO
    INDEX 00 45:11:24
    INDEX 01 45:14:24
  TRACK 03 AUDIO
    INDEX 00 45:18:74
    INDEX 01 45:21:74
REM LEADOUT 49:47:43
